<?xml version="1.0" encoding="UTF-8"?>
<svg width="12px" height="14px" viewBox="0 0 12 14" version="1.1" xmlns="http://www.w3.org/2000/svg" xmlns:xlink="http://www.w3.org/1999/xlink">
    <!-- Generator: Sketch 60.1 (88133) - https://sketch.com -->
    <title>Badge Copy 2</title>
    <desc>Created with Sketch.</desc>
    <g id="-----↳-1200" stroke="none" stroke-width="1" fill="none" fill-rule="evenodd">
        <g id="1200/Hot10.Listicle" transform="translate(-114.000000, -1428.000000)" fill="#000000">
            <g id="card_main-content" transform="translate(77.000000, 1322.000000)">
                <g id="Badge-Copy-2" transform="translate(37.000000, 106.000000)">
                    <path d="M5.81632653,3.90798505e-13 C9.02859513,3.90798505e-13 11.6326531,2.50193801 11.6326531,5.58823529 C11.6326531,8.67453258 5.81632653,13.4411765 5.81632653,13.4411765 C5.81632653,13.4411765 -6.48370246e-14,8.67453258 -6.48370246e-14,5.58823529 C-6.48370246e-14,2.50193801 2.60405793,3.90798505e-13 5.81632653,3.90798505e-13 Z M5.81632653,3.35294118 C4.53141915,3.35294118 3.48979592,4.35371644 3.48979592,5.58823529 C3.48979592,6.82275415 4.53141915,7.82352941 5.81632653,7.82352941 C7.10123391,7.82352941 8.14285714,6.82275415 8.14285714,5.58823529 C8.14285714,4.35371644 7.10123391,3.35294118 5.81632653,3.35294118 Z" id="Combined-Shape"></path>
                </g>
            </g>
        </g>
    </g>
</svg>