<?xml version="1.0" encoding="UTF-8"?>
<svg width="12px" height="12px" viewBox="0 0 12 12" version="1.1" xmlns="http://www.w3.org/2000/svg" xmlns:xlink="http://www.w3.org/1999/xlink">
    <!-- Generator: Sketch 57.1 (83088) - https://sketch.com -->
    <title>Combined Shape</title>
    <desc>Created with Sketch.</desc>
    <g id="Symbols" stroke="none" stroke-width="1" fill="none" fill-rule="evenodd">
        <g id="Footer/no-social" transform="translate(-1354.000000, -280.000000)" fill="#FFFFFF" fill-rule="nonzero">
            <g id="Group-5">
                <g id="Stacked-Group-21" transform="translate(1288.000000, 280.000000)">
                    <path d="M75.7076923,0 C77,0 78,1 78,2.29230769 L78,9.70769231 C78,11 77,12 75.7076923,12 L68.2923077,12 C67,12 66,11 66,9.70769231 L66,2.29230769 C66,1 67,0 68.2923077,0 L75.7076923,0 Z M68.9384615,4.76923077 L67.0769231,4.76923077 L67.0769231,9.70769231 L67.0834736,9.82782452 C67.1483774,10.4227764 67.6865385,10.9230769 68.2923077,10.9230769 L68.2923077,10.9230769 L75.7076923,10.9230769 L75.8278245,10.9165264 C76.4227764,10.8516226 76.9230769,10.3134615 76.9230769,9.70769231 L76.9230769,9.70769231 L76.9230769,4.76923077 L75.0615385,4.76923077 L75.1236152,4.91168423 C75.2398744,5.21632653 75.3076923,5.63076923 75.3076923,6 C75.3076923,7.81538462 73.8307692,9.30769231 72,9.30769231 C70.1692308,9.30769231 68.6923077,7.83076923 68.6923077,6 C68.6923077,5.55384615 68.7846154,5.07692308 68.9384615,4.76923077 L68.9384615,4.76923077 Z M72,3.86153846 C71.2923077,3.86153846 70.6615385,4.21538462 70.2769231,4.75384615 C70.0307692,5.10769231 69.8769231,5.53846154 69.8769231,6 C69.8769231,7.16923077 70.8307692,8.12307692 72,8.12307692 C73.1692308,8.12307692 74.1230769,7.16923077 74.1230769,6 C74.1230769,5.53846154 73.9692308,5.10769231 73.7230769,4.75384615 C73.3384615,4.21538462 72.7076923,3.86153846 72,3.86153846 Z M76.6153846,1.33846154 L76.3692308,1.35384615 L74.5846154,1.35384615 L74.5846154,3.4 L76.6153846,3.4 L76.6153846,1.33846154 Z" id="Combined-Shape"></path>
                </g>
            </g>
        </g>
    </g>
</svg>