<?xml version="1.0" encoding="UTF-8"?>
<svg width="16px" height="14px" viewBox="0 0 16 14" version="1.1" xmlns="http://www.w3.org/2000/svg" xmlns:xlink="http://www.w3.org/1999/xlink">
    <!-- Generator: Sketch 62 (91390) - https://sketch.com -->
    <title>icons8-weibo-50</title>
    <desc>Created with Sketch.</desc>
    <g id="Symbols" stroke="none" stroke-width="1" fill="none" fill-rule="evenodd">
        <g id="Footer/no-social" transform="translate(-1248.000000, -279.000000)" fill="#FFFFFF" fill-rule="nonzero">
            <g id="icons8-weibo-50" transform="translate(1248.000000, 279.000000)">
                <path d="M11.4782609,0 C11.2078803,0 10.9470108,0.027173913 10.6956522,0.0720107826 C10.5067934,0.104619478 10.3804348,0.285326261 10.4130435,0.474184696 C10.4456522,0.664402087 10.6263586,0.790761043 10.8152174,0.758152348 C11.0353263,0.718749913 11.2554348,0.695652174 11.4782609,0.695652174 C13.5951089,0.695652174 15.3043478,2.40489148 15.3043478,4.52173913 C15.3043478,4.97961948 15.2201089,5.41711965 15.0706522,5.82744557 C15.0244567,5.94565217 15.0448369,6.07880452 15.125,6.17663061 C15.2065217,6.2744567 15.3328803,6.32065217 15.4578803,6.29755443 C15.5828803,6.2744567 15.6847826,6.18478261 15.7241847,6.06521739 C15.8994567,5.5842393 16,5.066576 16,4.52173913 C16,2.02853252 13.9714675,0 11.4782609,0 Z M11.4782609,2.08695652 C11.3301631,2.08695652 11.1902174,2.10190226 11.0570654,2.125 C10.8682066,2.1589673 10.740489,2.33831513 10.7744567,2.52853252 C10.8070654,2.7173913 10.9877718,2.84374991 11.1766306,2.81114122 C11.2785325,2.79347826 11.3790762,2.7826087 11.4782609,2.7826087 C12.442935,2.7826087 13.2173913,3.55706539 13.2173913,4.52173913 C13.2173913,4.72961948 13.1793478,4.92798922 13.1100543,5.11548904 C13.0448369,5.29619583 13.1385871,5.49592383 13.3192936,5.56114122 C13.5,5.62635861 13.6997283,5.5339673 13.7649457,5.35326087 C13.8586957,5.09510887 13.9130435,4.81521739 13.9130435,4.52173913 C13.9130435,3.18070643 12.8192936,2.08695652 11.4782609,2.08695652 Z M6.66983687,2.22826087 C5.55298922,2.20652174 3.86820661,3.08831513 2.366848,4.56114122 C0.873641391,6.05434783 0,7.61956522 0,8.9673913 C0,11.5869565 3.3491847,13.1521739 6.66168487,13.1521739 C10.9565217,13.1521739 13.8315217,10.6779892 13.8315217,8.71195652 C13.8315217,7.51086957 12.8125002,6.85461948 11.9021739,6.56385878 C11.6847826,6.49048904 11.5394021,6.45516313 11.6480977,6.16304348 C11.7201089,5.98913043 11.826087,5.6576087 11.826087,5.2173913 C11.826087,4.7173913 11.4782609,4.2839673 10.7826087,4.20652174 C10.4375002,4.16847826 9.04347826,4.17391304 8.11820661,4.56114122 C8.11820661,4.56114122 7.60733704,4.78125009 7.75271757,4.38043478 C8.00815235,3.58016313 7.97146748,2.92391304 7.57065217,2.55978261 C7.35326087,2.3410327 7.04347826,2.23505426 6.66983687,2.22826087 Z M6.36956522,6.23777183 C9.0842393,6.23777183 11.2839673,7.62228278 11.2839673,9.33152174 C11.2839673,11.0394021 9.0842393,12.423913 6.36956522,12.423913 C3.65625009,12.423913 1.45652174,11.0394021 1.45652174,9.33152174 C1.45652174,7.62228278 3.65625009,6.23777183 6.36956522,6.23777183 Z M6.00543478,6.96467409 C4.95516313,6.97282609 3.93478261,7.54755443 3.491848,8.433424 C2.94565217,9.55978261 3.45516313,10.7975544 4.76494574,11.1970108 C6.07472835,11.6331523 7.63858713,10.9782609 8.18478261,9.77853252 C8.72961948,8.61548904 8.03940209,7.37907617 6.72961948,7.05298922 C6.49048904,6.99048904 6.24728278,6.96331513 6.00543478,6.96467409 Z M6.54755443,8.43478261 C6.74864139,8.43478261 6.91168487,8.59646748 6.91168487,8.79755443 C6.91168487,8.99864139 6.74864139,9.16168487 6.54755443,9.16168487 C6.34646748,9.16168487 6.183424,8.99864139 6.183424,8.79755443 C6.183424,8.59646748 6.34646748,8.43478261 6.54755443,8.43478261 Z M5.01494574,8.79755443 C5.12907617,8.79891304 5.24320661,8.816576 5.35054365,8.85326087 C5.816576,9.00135861 5.9592393,9.44293496 5.67255443,9.81114122 C5.42255443,10.1793478 4.85054365,10.3627718 4.41983687,10.1793478 C3.991848,9.99592383 3.88451096,9.55298922 4.13451096,9.22282609 C4.32201078,8.94565217 4.67119583,8.79347826 5.01494574,8.79755443 Z" id="Shape"></path>
            </g>
        </g>
    </g>
</svg>